HIERARCHY
ROOT Hips
{
	OFFSET	0.00	0.00	0.00
	CHANNELS 6 Xposition Yposition Zposition Zrotation Xrotation Yrotation
	JOINT LeftUpLeg
	{
		OFFSET	 0.126116	-0.014019	-0.065224
		CHANNELS 3 Zrotation Xrotation Yrotation
		JOINT LeftLeg
		{
			OFFSET	 0.000000	 0.000000	 0.569914
			CHANNELS 3 Zrotation Xrotation Yrotation
			JOINT LeftFoot
			{
				OFFSET	 0.000000	 0.000000	 0.544423
				CHANNELS 3 Zrotation Xrotation Yrotation
				JOINT LeftToeBase
				{
					OFFSET	 0.000000	 0.000000	 0.207117
					CHANNELS 3 Zrotation Xrotation Yrotation
					End Site
					{
						OFFSET	 0.000000	 0.000000	 0.207117
					}
				}
			}
		}
	}
	JOINT RightUpLeg
	{
		OFFSET	-0.124023	-0.008373	-0.065224
		CHANNELS 3 Zrotation Xrotation Yrotation
		JOINT RightLeg
		{
			OFFSET	 0.000000	 0.000000	 0.570047
			CHANNELS 3 Zrotation Xrotation Yrotation
			JOINT RightFoot
			{
				OFFSET	 0.000000	 0.000000	 0.544354
				CHANNELS 3 Zrotation Xrotation Yrotation
				JOINT RightToeBase
				{
					OFFSET	 0.000000	 0.000000	 0.207540
					CHANNELS 3 Zrotation Xrotation Yrotation
					End Site
					{
						OFFSET	 0.000000	 0.000000	 0.207540
					}
				}
			}
		}
	}
	JOINT Spine
	{
		OFFSET	 0.000184	-0.007763	 0.117403
		CHANNELS 3 Zrotation Xrotation Yrotation
		JOINT Spine1
		{
			OFFSET	 0.000000	 0.000000	 0.137269
			CHANNELS 3 Zrotation Xrotation Yrotation
			JOINT Spine2
			{
				OFFSET	 0.000000	 0.000000	 0.156879
				CHANNELS 3 Zrotation Xrotation Yrotation
				JOINT LeftShoulder
				{
					OFFSET	 0.080501	-0.002496	 0.160144
					CHANNELS 3 Zrotation Xrotation Yrotation
					JOINT LeftArm
					{
						OFFSET	 0.000000	 0.000000	 0.164363
						CHANNELS 3 Zrotation Xrotation Yrotation
						JOINT LeftForeArm
						{
							OFFSET	 0.000000	 0.000000	 0.364576
							CHANNELS 3 Zrotation Xrotation Yrotation
							JOINT LeftHand
							{
								OFFSET	 0.000000	 0.000000	 0.360812
								CHANNELS 3 Zrotation Xrotation Yrotation
								JOINT LeftHandIndex1
								{
									OFFSET	 0.000000	 0.000000	 0.086006
									CHANNELS 3 Zrotation Xrotation Yrotation
									JOINT LeftHandIndex2
									{
										OFFSET	 0.000000	 0.000000	 0.047236
										CHANNELS 3 Zrotation Xrotation Yrotation
										JOINT LeftHandIndex3
										{
											OFFSET	-0.004284	-0.000551	 0.038166
											CHANNELS 3 Zrotation Xrotation Yrotation
											End Site
											{
												OFFSET	-0.004284	-0.000551	 0.038166
											}
										}
									}
								}
							}
						}
					}
				}
				JOINT Neck
				{
					OFFSET	 0.000000	 0.000000	 0.176489
					CHANNELS 3 Zrotation Xrotation Yrotation
					JOINT Head
					{
						OFFSET	 0.000000	-0.001747	 0.077940
						CHANNELS 3 Zrotation Xrotation Yrotation
						End Site
						{
							OFFSET	 0.000000	-0.001747	 0.077940
						}
					}
				}
				JOINT RightShoulder
				{
					OFFSET	-0.080363	 0.000306	 0.159706
					CHANNELS 3 Zrotation Xrotation Yrotation
					JOINT RightArm
					{
						OFFSET	 0.000000	 0.000000	 0.164196
						CHANNELS 3 Zrotation Xrotation Yrotation
						JOINT RightForeArm
						{
							OFFSET	 0.000000	 0.000000	 0.365611
							CHANNELS 3 Zrotation Xrotation Yrotation
							JOINT RightHand
							{
								OFFSET	 0.000000	 0.000000	 0.360648
								CHANNELS 3 Zrotation Xrotation Yrotation
								JOINT RightHandIndex1
								{
									OFFSET	 0.000000	 0.000000	 0.069977
									CHANNELS 3 Zrotation Xrotation Yrotation
									JOINT RightHandIndex2
									{
										OFFSET	 0.000000	 0.000000	 0.052305
										CHANNELS 3 Zrotation Xrotation Yrotation
										JOINT RightHandIndex3
										{
											OFFSET	 0.009002	-0.000782	 0.042196
											CHANNELS 3 Zrotation Xrotation Yrotation
											End Site
											{
												OFFSET	 0.009002	-0.000782	 0.042196
											}
										}
									}
								}
							}
						}
					}
				}
			}
		}
	}
}
MOTION
Frames:    10
Frame Time: 0.03333334
-3.950307	-15.476980	 0.169264	-36.658050	 0.642826	 0.554900	 2.062256	-33.559790	 172.331400	-6.289220	-68.613390	-6.892933	 177.230900	 86.695890	 179.837800	-2.323579	 37.558830	-0.212026	-0.344391	-35.181610	-177.398700	 1.841817	-73.364540	 4.346080	-178.048500	 85.338430	 179.631300	 2.403864	 22.029340	-0.132514	-6.760973	 13.772080	 2.326845	-10.493520	 7.286130	-1.474524	-12.214380	 3.996310	-0.383867	-139.716400	 89.558100	-128.702700	 49.635490	 61.166770	-77.655180	-22.223990	 2.516140	-27.680970	-2.329100	-12.713890	-5.959650	-3.812334	 37.924440	-2.927599	-2.450526	 36.184240	 0.754587	-1.378229	 35.397820	-2.634230	 1.536665	 2.563084	-3.145951	-2.559291	 6.993693	 3.418105	 93.933330	 85.936450	 171.518100	-54.138010	 70.424520	 73.391290	 2.620178	-7.331165	 30.343010	-23.337680	-13.448570	 10.301660	 6.437017	 35.671460	-0.771858	 2.830251	 35.756010	-7.813440	-2.350882	 35.473990	 5.254307
-3.948262	-15.476550	 0.177114	-37.278350	 1.634984	 0.482137	 2.259376	-33.998440	 172.406300	-5.651698	-67.416310	-6.042626	 176.849200	 87.137140	-179.589000	-2.333927	 36.432970	-0.183832	 0.001345	-35.514600	-177.529800	 1.623573	-71.682980	 4.333311	-177.593400	 85.663700	 179.309500	 2.405329	 21.062780	-0.151929	-6.764076	 13.818580	 2.251703	-10.439300	 7.109643	-1.485877	-12.080120	 3.813575	-0.398976	-132.106900	 89.495260	-136.298900	 48.453420	 61.198870	-76.906370	-22.354970	 2.431862	-27.267630	-2.043479	-12.767060	-5.966290	-3.812334	 37.924440	-2.927599	-2.450526	 36.184240	 0.754587	-1.378229	 35.397820	-2.634230	 1.656313	 2.409285	-3.117316	-2.453312	 6.859466	 3.729309	 94.072540	 85.974940	 171.298800	-54.082670	 70.625660	 73.290430	 2.629548	-7.237784	 30.079350	-23.552000	-13.489090	 10.306970	 6.437017	 35.671460	-0.771858	 2.830251	 35.756010	-7.813440	-2.350882	 35.473990	 5.254307
-3.945756	-15.475980	 0.186133	-37.906910	 2.827237	 0.332006	 2.464752	-34.599250	 172.605700	-5.002524	-66.135090	-5.175902	 176.168600	 87.665360	-178.676700	-2.343344	 35.320220	-0.156608	 0.389884	-36.049350	-177.545500	 1.396097	-69.912490	 4.326311	-177.053200	 86.050770	 178.912200	 2.406095	 20.429160	-0.164573	-6.796982	 13.786510	 2.195315	-10.401360	 6.891896	-1.476541	-11.922320	 3.600244	-0.416024	-126.505900	 89.432140	-141.914300	 47.059480	 61.137390	-75.982440	-22.492830	 2.367696	-26.785060	-1.804448	-12.824980	-5.974154	-3.812334	 37.924440	-2.927599	-2.450526	 36.184240	 0.754587	-1.378229	 35.397820	-2.634230	 1.781523	 2.260394	-3.062509	-2.319196	 6.709816	 4.131822	 94.227630	 86.013060	 171.050400	-54.021620	 70.909950	 73.050160	 2.765979	-7.068368	 29.777770	-23.654940	-13.534040	 10.314210	 6.437017	 35.671460	-0.771858	 2.830251	 35.756010	-7.813440	-2.350882	 35.473990	 5.254307
-3.943373	-15.475540	 0.193873	-38.487050	 3.847030	 0.137531	 2.679761	-35.071080	 172.843700	-4.567218	-65.037320	-4.530353	 175.177100	 88.136800	-177.495700	-2.350454	 34.414170	-0.134866	 0.767058	-36.593350	-177.441600	 0.985439	-68.659800	 4.153471	-176.277200	 86.499270	 178.170800	 2.406427	 20.104930	-0.171023	-6.804286	 13.750620	 2.194742	-10.352570	 6.708449	-1.443850	-11.777500	 3.410554	-0.430511	-123.175100	 89.387060	-145.266500	 45.871850	 61.037250	-75.277470	-22.754380	 2.369491	-26.394330	-1.758949	-12.873110	-5.982163	-3.812334	 37.924440	-2.927599	-2.450526	 36.184240	 0.754587	-1.378229	 35.397820	-2.634230	 1.892063	 2.146876	-2.995710	-2.199581	 6.568397	 4.498220	 94.328990	 86.038490	 170.890900	-54.023420	 71.205990	 72.809360	 2.965074	-6.878037	 29.494940	-23.662870	-13.572850	 10.320430	 6.437017	 35.671460	-0.771858	 2.830251	 35.756010	-7.813440	-2.350882	 35.473990	 5.254307
-3.941019	-15.475470	 0.201344	-39.133180	 4.778480	-0.090347	 2.980611	-35.401320	 173.133000	-4.323153	-63.949970	-4.012857	 173.446500	 88.608720	-175.608300	-2.356806	 33.544630	-0.114351	 1.187657	-37.178310	-177.267000	 0.325445	-67.694110	 3.789637	-174.997300	 87.137210	 176.807400	 2.406713	 19.786060	-0.177349	-6.763687	 13.788860	 2.253203	-10.257240	 6.566824	-1.393013	-11.622740	 3.230144	-0.443179	-120.879000	 89.348380	-147.574300	 44.731120	 60.919060	-74.733600	-23.098200	 2.390179	-26.012680	-1.768799	-12.921250	-5.990685	-3.812334	 37.924440	-2.927599	-2.450526	 36.184240	 0.754587	-1.378229	 35.397820	-2.634230	 2.015795	 2.040359	-2.927853	-2.086811	 6.427390	 4.846479	 94.406600	 86.059360	 170.772600	-53.965720	 71.527550	 72.483800	 3.088094	-6.704974	 29.152680	-23.767230	-13.612220	 10.325260	 6.437017	 35.671460	-0.771858	 2.830251	 35.756010	-7.813440	-2.350882	 35.473990	 5.254307
-3.938985	-15.475580	 0.207989	-39.776640	 5.534406	-0.319714	 3.349872	-35.565880	 173.441200	-4.237348	-62.930520	-3.606629	 170.282100	 89.044070	-172.316600	-2.361692	 32.833350	-0.097805	 1.564928	-37.713330	-177.065500	-0.457985	-66.839110	 3.284749	-173.408600	 87.710390	 175.054000	 2.406963	 19.475190	-0.183499	-6.697486	 13.945190	 2.373401	-10.141930	 6.505316	-1.325087	-11.475750	 3.093726	-0.451247	-119.465900	 89.319020	-148.986100	 43.703380	 60.827900	-74.401630	-23.356790	 2.364836	-25.641210	-1.632230	-12.968930	-5.997751	-3.812334	 37.924440	-2.927599	-2.450526	 36.184240	 0.754587	-1.378229	 35.397820	-2.634230	 2.134251	 1.938938	-2.879097	-1.990246	 6.333295	 5.120186	 94.466550	 86.077890	 170.686100	-53.849480	 71.852390	 72.123400	 3.145544	-6.546948	 28.755150	-23.954720	-13.650870	 10.327120	 6.437017	 35.671460	-0.771858	 2.830251	 35.756010	-7.813440	-2.350882	 35.473990	 5.254307
-3.937307	-15.475950	 0.213713	-40.336050	 6.182711	-0.517844	 3.736557	-35.620750	 173.724400	-4.187513	-61.973000	-3.232659	 163.401300	 89.428700	-165.305800	-2.365172	 32.297630	-0.085476	 1.815531	-38.127460	-176.782700	-1.219665	-66.012720	 2.708946	-171.686800	 88.165380	 173.119300	 2.407107	 19.269870	-0.187560	-6.652856	 14.145470	 2.501203	-10.051700	 6.505209	-1.246875	-11.350040	 3.008995	-0.454688	-118.613400	 89.303670	-149.852600	 42.786030	 60.805600	-74.296480	-23.504300	 2.273335	-25.254560	-1.275091	-13.018340	-6.002894	-3.812334	 37.924440	-2.927599	-2.450526	 36.184240	 0.754587	-1.378229	 35.397820	-2.634230	 2.225322	 1.866274	-2.839714	-1.906688	 6.270990	 5.278204	 94.522290	 86.097810	 170.611100	-53.641370	 72.202920	 71.669720	 3.159650	-6.389892	 28.287030	-24.213660	-13.689660	 10.325700	 6.437017	 35.671460	-0.771858	 2.830251	 35.756010	-7.813440	-2.350882	 35.473990	 5.254307
-3.936253	-15.476420	 0.219225	-40.729710	 6.794082	-0.644745	 4.094494	-35.691470	 173.941900	-4.052608	-61.039290	-2.808962	 140.819700	 89.741310	-142.551700	-2.367737	 31.888600	-0.076133	 1.890946	-38.274460	-176.678500	-1.893868	-65.093700	 2.103206	-169.629200	 88.541160	 170.822500	 2.407115	 19.252290	-0.187903	-6.679074	 14.342610	 2.553809	-10.029570	 6.570296	-1.185009	-11.257210	 2.987160	-0.453097	-118.174800	 89.302540	-150.336200	 41.955810	 60.900500	-74.449010	-23.706540	 2.148560	-24.802050	-0.796148	-13.071180	-6.006779	-3.812334	 37.924440	-2.927599	-2.450526	 36.184240	 0.754587	-1.378229	 35.397820	-2.634230	 2.265678	 1.870303	-2.776399	-1.829169	 6.216061	 5.274316	 94.592010	 86.124400	 170.521200	-53.259000	 72.626410	 70.991520	 3.151701	-6.210842	 27.701480	-24.550110	-13.730520	 10.321510	 6.437017	 35.671460	-0.771858	 2.830251	 35.756010	-7.813440	-2.350882	 35.473990	 5.254307
-3.935682	-15.476790	 0.223675	-40.866490	 7.312822	-0.675010	 4.307861	-35.844950	 174.023000	-3.844321	-60.288300	-2.433748	 79.327190	 89.838070	-80.890460	-2.369038	 31.674570	-0.071278	 1.786244	-38.304590	-176.599400	-2.252811	-64.266450	 1.665844	-167.391000	 88.802860	 168.405000	 2.407070	 19.325240	-0.186463	-6.763434	 14.440240	 2.501058	-10.073660	 6.659412	-1.173521	-11.210060	 3.011153	-0.448833	-118.123500	 89.316720	-150.462100	 41.361190	 61.022960	-74.708240	-23.962440	 2.059416	-24.359520	-0.438329	-13.116350	-6.010292	-3.812334	 37.924440	-2.927599	-2.450526	 36.184240	 0.754587	-1.378229	 35.397820	-2.634230	 2.242076	 1.923414	-2.712223	-1.764948	 6.183036	 5.176234	 94.671200	 86.150600	 170.412900	-52.724220	 73.066180	 70.139660	 3.148915	-6.031937	 27.102300	-24.888270	-13.766170	 10.316300	 6.437017	 35.671460	-0.771858	 2.830251	 35.756010	-7.813440	-2.350882	 35.473990	 5.254307
-3.935187	-15.476590	 0.228414	-40.797630	 7.871070	-0.674828	 4.439035	-36.097700	 174.088500	-3.544716	-59.484040	-2.037730	 31.851270	 89.698040	-33.224150	-2.369175	 31.652730	-0.070780	 1.492109	-38.482950	-176.585300	-2.332695	-63.402400	 1.340874	-163.812800	 89.061630	 164.690100	 2.406937	 19.510970	-0.182788	-6.915805	 14.544560	 2.428126	-10.170290	 6.777709	-1.239223	-11.179490	 3.078194	-0.441040	-119.582800	 89.367280	-149.100900	 40.893120	 61.152040	-75.209230	-24.371260	 2.027785	-24.051420	-0.196817	-13.166380	-6.016382	-3.812334	 37.924440	-2.927599	-2.450526	 36.184240	 0.754587	-1.378229	 35.397820	-2.634230	 2.165573	 2.006550	-2.704316	-1.700928	 6.174348	 5.037687	 94.651570	 86.114960	 170.387200	-51.786370	 73.697610	 68.747090	 3.200716	-5.830078	 26.414530	-25.330590	-13.808380	 10.309040	 6.437017	 35.671460	-0.771858	 2.830251	 35.756010	-7.813440	-2.350882	 35.473990	 5.254307
